<svg width="145" height="33" viewBox="0 0 145 33" fill="none" xmlns="http://www.w3.org/2000/svg">
<mask id="mask0_1_8805" style="mask-type:luminance" maskUnits="userSpaceOnUse" x="0" y="0" width="144" height="33">
<path d="M143.936 0.741943H0.556152V32.5424H143.936V0.741943Z" fill="white"/>
</mask>
<g mask="url(#mask0_1_8805)">
<path d="M73.3678 23.8301L73.5695 23.5477V32.5452H76.3258V10.7184H73.5695V13.3939L73.3678 13.1143C72.0852 11.3449 70.2808 10.4495 68.0059 10.4495C65.8816 10.4495 64.0342 11.2454 62.5149 12.8131C60.9929 14.3835 60.2212 16.2873 60.2212 18.4708C60.2212 20.6543 60.9876 22.6146 62.4988 24.1743C64.01 25.7339 65.8601 26.5245 68.0059 26.5245C69.1165 26.5245 70.1518 26.2771 71.0822 25.793C72.0153 25.3063 72.7843 24.6475 73.3678 23.8301ZM68.2748 24.0667C66.7609 24.0667 65.4567 23.5128 64.3946 22.4237C63.3351 21.3346 62.8 20.0063 62.8 18.4735C62.8 16.9408 63.3324 15.6473 64.3811 14.5664C65.4298 13.4854 66.7421 12.9368 68.2748 12.9368C69.8076 12.9368 71.0741 13.4908 72.1524 14.5798C73.2307 15.6689 73.7793 16.9784 73.7793 18.4708C73.7793 19.9632 73.2361 21.3078 72.1685 22.4076C71.101 23.5074 69.7887 24.064 68.2748 24.064V24.0667Z" fill="#28282D"/>
<path d="M93.4007 26.285V10.7183H90.6445V18.7101C90.6445 20.2213 90.1981 21.4905 89.3214 22.4774C88.4394 23.4723 87.2939 23.9752 85.9145 23.9752C84.7178 23.9752 83.6853 23.5584 82.8409 22.7355C81.9992 21.9127 81.5717 20.7779 81.5717 19.3635V10.7156H78.8154V20.1971C78.8154 22.1036 79.4635 23.6525 80.7435 24.8061C82.0261 25.9624 83.575 26.5513 85.3471 26.5513C87.5225 26.5513 89.2354 25.6666 90.4401 23.9187L90.6445 23.6229V26.2824H93.4007V26.285Z" fill="#28282D"/>
<path d="M107.149 23.5074L107.356 23.1686V26.2851H109.965V15.4618C109.965 13.9775 109.29 12.762 107.956 11.8451C106.611 10.92 104.936 10.4495 102.984 10.4495C101.032 10.4495 99.5313 10.8905 98.2351 11.7563C96.9848 12.5926 96.2964 13.7408 96.1915 15.1714L98.8751 15.1445C99.2731 13.5418 100.677 12.7298 103.046 12.7298C104.294 12.7298 105.331 12.9906 106.13 13.5069C106.945 14.0339 107.359 14.8111 107.359 15.8194V16.973L102.304 17.0026C100.115 17.0026 98.4476 17.4356 97.3505 18.2907C96.2614 19.1377 95.7209 20.3424 95.7397 21.8671C95.7586 22.9481 96.0759 23.8596 96.6809 24.583C97.2913 25.309 98.012 25.8199 98.8214 26.0996C99.6415 26.3819 100.54 26.5245 101.497 26.5245C102.938 26.5245 104.143 26.1964 105.084 25.5457C106.031 24.8922 106.724 24.2065 107.152 23.5074H107.149ZM105.622 22.7276C104.474 23.7359 103.156 24.2442 101.704 24.2442C100.892 24.2442 100.166 24.0532 99.5447 23.6768C98.9101 23.2923 98.5551 22.706 98.4933 21.937C98.4099 21.1088 98.7353 20.3989 99.4587 19.8288C100.171 19.2695 101.306 18.9764 102.833 18.9549H107.356V19.0651C107.356 20.4822 106.773 21.7138 105.619 22.7249L105.622 22.7276Z" fill="#28282D"/>
<path d="M127.09 5.03904C126.727 4.67602 126.278 4.49048 125.754 4.49048C125.229 4.49048 124.788 4.67333 124.417 5.05248C124.052 5.42626 123.869 5.88071 123.869 6.40507C123.869 6.92943 124.046 7.36774 124.417 7.72538C124.786 8.08571 125.224 8.26049 125.754 8.26049C126.283 8.26049 126.727 8.08033 127.09 7.72538C127.459 7.36774 127.639 6.9348 127.639 6.40507C127.639 5.87533 127.453 5.40206 127.09 5.03904Z" fill="#28282D"/>
<path d="M127.103 10.7183H124.347V26.285H127.103V10.7183Z" fill="#28282D"/>
<path d="M141.121 23.5074L141.328 23.1686V26.2851H143.937V15.4618C143.937 13.9775 143.262 12.762 141.931 11.8451C140.586 10.92 138.911 10.4495 136.959 10.4495C135.007 10.4495 133.506 10.8905 132.207 11.7563C130.957 12.5926 130.271 13.7408 130.164 15.1714L132.847 15.1445C133.245 13.5418 134.649 12.7298 137.018 12.7298C138.266 12.7298 139.304 12.9906 140.102 13.5069C140.917 14.0339 141.331 14.8111 141.331 15.8194V16.973L136.276 17.0026C134.087 17.0026 132.42 17.4356 131.323 18.2907C130.234 19.1377 129.693 20.3424 129.712 21.8671C129.731 22.9481 130.048 23.8596 130.653 24.583C131.263 25.309 131.984 25.8199 132.794 26.0996C133.614 26.3819 134.512 26.5245 135.469 26.5245C136.91 26.5245 138.115 26.1964 139.056 25.5457C140.003 24.8922 140.699 24.2065 141.124 23.5074H141.121ZM139.594 22.7276C138.446 23.7359 137.128 24.2442 135.676 24.2442C134.864 24.2442 134.138 24.0532 133.517 23.6768C132.882 23.2923 132.527 22.706 132.465 21.937C132.382 21.1088 132.707 20.3989 133.431 19.8288C134.143 19.2695 135.278 18.9764 136.806 18.9549H141.328V19.0651C141.328 20.4822 140.745 21.7138 139.591 22.7249L139.594 22.7276Z" fill="#28282D"/>
<path d="M52.5126 5.6521H47.1588L39.5381 26.285H42.5606L44.3434 21.5174H55.3334L57.1162 26.285H60.1387L52.518 5.6521H52.5126ZM50.036 18.9413H45.1931L49.6757 6.64435H49.9903L54.4729 18.9413H50.036Z" fill="#28282D"/>
<path d="M28.038 15.5451C27.2259 15.2332 25.2226 14.7841 24.4213 14.4507C23.585 14.1011 23.0391 13.6816 22.6815 13.1788C22.3373 12.6652 22.1383 12.0064 22.1087 11.1002C22.0818 10.2316 22.3695 8.20139 22.3668 7.33014C22.3749 7.14998 22.3776 6.96981 22.3695 6.79234C22.3695 6.46159 22.3238 6.00714 22.2969 5.77589C22.2969 5.76513 22.2969 5.75437 22.2942 5.74362C22.2862 5.67102 22.2808 5.6253 22.2808 5.6253L22.2539 5.44245H22.2485C21.864 3.1998 20.0973 1.3121 17.6691 0.849591C14.9693 0.333298 12.3422 1.74504 11.28 4.10062H11.2719L0.556152 26.3631H10.2662L15.4829 15.5182C15.8944 14.5314 16.8705 13.8349 18.0079 13.8349C19.3067 13.8349 20.3958 14.733 20.6781 15.9458C20.7481 16.2443 20.7911 16.575 20.8018 16.9515C20.8287 17.82 20.541 19.8503 20.5437 20.7215C20.3931 23.6794 22.4206 26.3174 25.3517 26.796C26.8333 27.038 28.3446 26.632 29.5734 25.7822C30.8023 24.9325 31.7166 23.6633 32.0151 22.1924C32.604 19.2829 30.8561 16.4513 28.038 15.5451Z" fill="#28282D"/>
<path d="M121.826 10.6188C120.269 10.4628 119.126 10.6403 117.999 11.162C116.776 11.7294 115.891 12.7781 115.35 13.9505V10.721H112.589V26.2797H115.35V18.4223C115.35 16.4836 116.039 15.053 117.413 14.0823C118.69 13.1814 120.035 12.9018 121.823 13.2271V10.6188H121.826Z" fill="#28282D"/>
</g>
</svg>
