<?xml version="1.0" encoding="utf-8"?>
<svg version="1.1" id="Layer_1" xmlns="http://www.w3.org/2000/svg" xmlns:xlink="http://www.w3.org/1999/xlink" x="0px" y="0px"
	viewBox="0 0 780 172" style="enable-background:new 0 0 780 172;" xml:space="preserve">
	<style type="text/css">
		.st0{fill:#46CF63;}
		.st1{fill:#151515}
	</style>
	<path class="st0" d="M131.3,48.1c0,0-9.1,8.6-62.6,17.1C15.1,73.7-3.8,96.6,1.7,124.4C8.3,157.9,55.5,156.1,57,156
		C59.4,155.9,148.1,153.8,131.3,48.1L131.3,48.1z"/>
		<path class="st0" d="M131.3,48.1c0,0-1.9-12.4,1.5-24.8C137,8.1,153.6-1.2,169.6,0.1c16,1.3,24.6,10.9,21.5,24
			C186.8,41.7,148.7,39.7,131.3,48.1z"/>
			<path class="st1" d="M262,15.8l-50.8,120.9h15.2l14.2-34.7h57.5l14,34.7h15.2L276.8,15.8H262z M245.6,89.9l23.9-58l23.6,58H245.6z
				M406.8,64.8c-7.2-9.9-18.5-16.3-33.7-16.3c-26.7,0-44.1,20.1-44.1,45.4c0,25.2,17.4,45.2,44.1,45.2c15.2,0,26.6-6.4,33.7-16.1v49
				h13.7V51.1h-13.7V64.8z M375,126.8c-20.4,0-32.1-14.6-32.1-32.9c0-18.3,12.2-33,32.1-33c19.9,0,32.1,14.8,32.1,33
				C407.1,112.1,394.9,126.8,375,126.8z M498.1,97.8c0,18.7-9.7,29.4-25.7,29.4c-14.2,0-21.4-7.7-21.4-23.2v-53h-13.7V106
				c0,20.5,12,33,32.4,33c12.2,0,22.2-4.3,28.4-14.6v12.2h13.7V51.1h-13.7V97.8z M599.7,76.8c0-18.3-13.2-28.3-34.9-28.3
				c-19.5,0-35.2,11-36.6,27.3l12.5,4.9c0-14.1,10.7-21,24-21c11.2,0,21.4,3.8,21.4,14.1c0,9.2-3.8,10.5-31.9,15.5h0
				c-16.9,3-28.2,11.2-28.2,25.7c0,14.5,12,24.2,29.1,24.2c12.5,0,24.4-4.1,31.6-14.1l3.8,11.7h11.9c-1.8-10.4-2.7-20.9-2.7-31.5V76.8z
				M586.2,102.1c0,14.8-10.4,26.1-28.2,26.1h0c-10.9,0-17.2-6.1-17.2-14c0-9.4,7.5-13,17.4-14.8c19.7-4,25.2-4.6,28.1-7.4V102.1z
				M631.4,65.9V51.1h-13.7v85.5h13.7V95.2c0-23.7,11.5-31.9,27.2-31.9c2.3,0,4.7,0.3,6.8,0.8v-14c-2-0.3-3.3-0.5-5.3-0.5
				C650.6,49.7,638.1,53.3,631.4,65.9z M674.8,136.6h13.7V51.1h-13.7V136.6z M673.3,32.2h16.9V15.8h-16.9V32.2z M779.1,136
				c-1.7-10-2.6-20-2.6-30.1V76.8c0-18.3-13.2-28.3-34.9-28.3c-19.5,0-35.2,11-36.6,27.3l12.5,4.9c0-14.1,10.7-21,24-21
				c11.2,0,21.4,3.8,21.4,14.1c0,9.2-3.8,10.5-31.9,15.5h0c-16.9,3-28.2,11.2-28.2,25.7c0,14.5,12,24.2,29.1,24.2
				c12.5,0,24.4-4.1,31.6-14.1l3.8,11.7h11.9L779.1,136z M763,102.1c0,14.8-10.4,26.1-28.2,26.1h0c-10.9,0-17.2-6.1-17.2-14
				c0-9.4,7.5-13,17.4-14.8c19.7-4,25.2-4.6,28.1-7.4V102.1z"/>
			</svg>
