<svg width="83" height="83" viewBox="0 0 83 83" fill="none" xmlns="http://www.w3.org/2000/svg">
<circle cx="41.5" cy="41.5" r="41.5" fill="#EDEDED"/>
<path d="M49.4654 54.3158C47.0721 56.7744 43.6687 57.9023 40.3203 57.3496C36.9719 56.797 34.0955 54.6316 32.5695 51.5188C31.0435 48.406 31.0654 44.7406 32.6244 41.6504L42 27.5075L51.3756 41.6504C52.4186 43.6917 52.7919 46.0263 52.4515 48.3045C52.1112 50.5827 51.0682 52.6917 49.4764 54.3158H49.4654ZM53.4286 40.297L43.01 24.5639C42.7795 24.2143 42.3952 24 41.989 24C41.5828 24 41.1986 24.2143 40.968 24.5639L30.5604 40.297C30.5604 40.297 30.5165 40.3759 30.4945 40.4211C28.3757 44.5602 28.5184 49.5451 30.8678 53.5489C33.2172 57.5526 37.4439 60 42 60C46.5561 60 50.7828 57.5526 53.1322 53.5489C55.4816 49.5451 55.6243 44.5602 53.5055 40.4211C53.4835 40.3759 53.4616 40.3421 53.4286 40.297Z" fill="black"/>
</svg>
