<svg width="97" height="97" viewBox="0 0 97 97" fill="none" xmlns="http://www.w3.org/2000/svg">
<circle cx="48.5" cy="48.5" r="48.5" fill="#EDEDED"/>
<path d="M26.9848 41.0672C30.5609 41.0672 32.3607 39.022 33.9384 37.1989C35.3642 35.5628 36.4861 34.2655 38.8351 34.2655C41.1842 34.2655 42.3061 35.5628 43.7319 37.1989C45.3096 39.0337 47.0977 41.0672 50.6855 41.0672C54.2733 41.0672 56.0614 39.022 57.6391 37.1989C59.0649 35.5628 60.1985 34.2655 62.5358 34.2655C64.8732 34.2655 66.0068 35.5628 67.4326 37.1989C68.239 38.2156 69.1739 39.1038 70.2257 39.8635C70.5296 40.0738 70.9036 40.144 71.2542 40.0738C71.6165 40.0037 71.932 39.7934 72.1307 39.4895C72.3293 39.1856 72.3995 38.8117 72.3293 38.4611C72.2475 38.1105 72.0372 37.7949 71.7333 37.5962C70.8919 36.9768 70.1439 36.2406 69.4895 35.4225C67.9118 33.5877 66.1237 31.5542 62.5475 31.5542C58.9714 31.5542 57.1716 33.5994 55.5939 35.4225C54.1681 37.0587 53.0345 38.3559 50.6972 38.3559C48.3598 38.3559 47.2379 37.0587 45.8004 35.4225C44.2227 33.5877 42.4346 31.5542 38.8468 31.5542C35.259 31.5542 33.4709 33.5994 31.8932 35.4225C30.4674 37.0587 29.3455 38.3559 26.9965 38.3559H25.9096C25.1616 38.3559 24.5422 38.9636 24.5422 39.7232C24.5422 40.4712 25.1499 41.0906 25.9096 41.0906H26.9965L26.9848 41.0672Z" fill="black"/>
<path d="M26.9848 52.8591C30.5609 52.8591 32.3607 50.8139 33.9384 48.9908C35.3642 47.3546 36.4861 46.0574 38.8351 46.0574C41.1842 46.0574 42.3061 47.3546 43.7319 48.9908C45.3096 50.8256 47.0977 52.8591 50.6855 52.8591C54.2733 52.8591 56.0614 50.8139 57.6391 48.9908C59.0649 47.3546 60.1985 46.0574 62.5358 46.0574C64.8732 46.0574 66.0068 47.3546 67.4326 48.9908C68.239 50.0075 69.1739 50.8957 70.2257 51.6553C70.5296 51.8657 70.9036 51.9358 71.2542 51.8657C71.6165 51.7956 71.932 51.5852 72.1307 51.2814C72.3293 50.9775 72.3995 50.6035 72.3293 50.2529C72.2475 49.9023 72.0372 49.5868 71.7333 49.3881C70.8919 48.7687 70.1439 48.0325 69.4895 47.2144C67.9118 45.3796 66.1237 43.3461 62.5475 43.3461C58.9714 43.3461 57.1716 45.3913 55.5939 47.2144C54.1681 48.8505 53.0345 50.1478 50.6972 50.1478C48.3598 50.1478 47.2379 48.8505 45.8004 47.2144C44.2227 45.3796 42.4346 43.3461 38.8468 43.3461C35.259 43.3461 33.4709 45.3913 31.8932 47.2144C30.4674 48.8505 29.3455 50.1478 26.9965 50.1478H25.9096C25.1616 50.1478 24.5422 50.7555 24.5422 51.5151C24.5422 52.2631 25.1499 52.8825 25.9096 52.8825H26.9965L26.9848 52.8591Z" fill="black"/>
<path d="M26.9848 64.6395C30.5609 64.6395 32.3607 62.5943 33.9384 60.7712C35.3642 59.135 36.4861 57.8378 38.8351 57.8378C41.1842 57.8378 42.3061 59.135 43.7319 60.7712C45.3096 62.606 47.0977 64.6395 50.6855 64.6395C54.2733 64.6395 56.0614 62.5943 57.6391 60.7712C59.0649 59.135 60.1985 57.8378 62.5358 57.8378C64.8732 57.8378 66.0068 59.135 67.4326 60.7712C68.239 61.7879 69.1739 62.6761 70.2257 63.4357C70.5296 63.6461 70.9036 63.7162 71.2542 63.6461C71.6165 63.576 71.932 63.3656 72.1307 63.0618C72.3293 62.7579 72.3995 62.3839 72.3293 62.0333C72.2475 61.6827 72.0372 61.3672 71.7333 61.1685C70.8919 60.5491 70.1439 59.8128 69.4895 58.9948C67.9118 57.16 66.1237 55.1265 62.5475 55.1265C58.9714 55.1265 57.1716 57.1716 55.5939 58.9948C54.1681 60.6309 53.0345 61.9282 50.6972 61.9282C48.3598 61.9282 47.2379 60.6309 45.8004 58.9948C44.2227 57.16 42.4346 55.1265 38.8468 55.1265C35.259 55.1265 33.4709 57.1716 31.8932 58.9948C30.4674 60.6309 29.3455 61.9282 26.9965 61.9282H25.9096C25.1616 61.9282 24.5422 62.5359 24.5422 63.2955C24.5422 64.0435 25.1499 64.6629 25.9096 64.6629H26.9965L26.9848 64.6395Z" fill="black"/>
</svg>
