<svg width="36" height="36" viewBox="0 0 36 36" fill="none" xmlns="http://www.w3.org/2000/svg">
<g clip-path="url(#clip0_442_2791)">
<path d="M35.0056 6.51107C34.8162 6.12041 34.461 5.8363 34.023 5.75343C33.5968 5.6824 33.1588 5.82446 32.851 6.12041L26.8491 12.1224C26.4347 12.5367 25.9138 12.7498 25.3101 12.738C24.73 12.7261 24.1973 12.4775 23.7948 12.0395C23.0608 11.2227 23.1555 9.87313 24.0079 9.02077L29.8796 3.14902C30.1874 2.84123 30.3177 2.40321 30.2466 1.97704C30.1756 1.55086 29.8915 1.18388 29.489 0.994467C25.2864 -0.923323 20.2552 -0.0236189 16.9878 3.25557C14.5373 5.69424 13.3772 9.06813 13.8034 12.513C13.9573 13.7679 13.4719 15.0938 12.4893 16.0882L1.53897 27.0267C0.544558 28.0211 0 29.3351 0 30.7439C0 32.1526 0.544558 33.4667 1.53897 34.4611C2.53338 35.4555 3.84742 36.0001 5.25617 36.0001C6.66491 36.0001 7.97895 35.4555 8.97336 34.4611L19.9237 23.5107C20.9063 22.5282 22.244 22.031 23.4989 22.1967C26.9438 22.6229 30.3058 21.4627 32.7563 19.0122C36.0355 15.7449 36.9471 10.7255 35.0174 6.51107H35.0056ZM16.4551 12.1816C16.1236 9.56533 17.0115 6.99644 18.8819 5.13784C20.4564 3.56336 22.6347 2.65182 24.8839 2.65182C25.4166 2.65182 25.9375 2.69917 26.4584 2.79387L22.1256 7.12666C20.2552 8.9971 20.1131 11.933 21.8178 13.8152C22.7057 14.7978 23.9132 15.3542 25.2391 15.3897C26.5413 15.4016 27.808 14.9162 28.7313 13.9928L33.1943 9.52982C33.7034 12.2526 32.8392 15.1293 30.8622 17.1063C29.0036 18.9649 26.4466 19.8527 23.8303 19.5213C21.7705 19.2608 19.6041 20.0421 18.0414 21.6048L7.07925 32.5788C6.073 33.5851 4.42749 33.5851 3.42124 32.5788C2.415 31.5726 2.415 29.9271 3.42124 28.9208L14.3716 17.9705C15.9342 16.4078 16.7037 14.2533 16.4551 12.1816Z" fill="black"/>
</g>
<defs>
<clipPath id="clip0_442_2791">
<rect width="36" height="36" fill="white"/>
</clipPath>
</defs>
</svg>
