<svg width="39" height="33" viewBox="0 0 39 33" fill="none" xmlns="http://www.w3.org/2000/svg">
<g clip-path="url(#clip0_442_2767)">
<path d="M23.0151 21.419C21.8582 22.5883 20.2119 23.128 18.5878 22.8694C16.9638 22.6108 15.5733 21.5764 14.8391 20.0922C14.105 18.6081 14.1161 16.8653 14.8614 15.3924L19.3999 8.65748L23.9384 15.3924C24.439 16.3706 24.6281 17.4725 24.4612 18.5631C24.2943 19.6537 23.7938 20.6544 23.0151 21.4302V21.419ZM24.9395 14.7403L19.8893 7.25202C19.7781 7.08337 19.589 6.98218 19.3999 6.98218C19.2108 6.98218 19.0105 7.08337 18.9104 7.25202L13.8714 14.7403C13.8714 14.7403 13.8491 14.774 13.838 14.7965C12.8146 16.7641 12.8813 19.1365 14.016 21.0479C15.1506 22.9593 17.1974 24.1287 19.3999 24.1287C21.6024 24.1287 23.6492 22.9593 24.7949 21.0479C25.9295 19.1365 26.0074 16.7641 24.9729 14.7965C24.9729 14.774 24.9507 14.7515 24.9395 14.7403Z" fill="white"/>
<path d="M19.3999 24.6909C17.0083 24.6909 14.7613 23.4091 13.5376 21.3403C12.3029 19.2714 12.225 16.6629 13.3374 14.5379L13.393 14.4367L18.4432 6.93721C18.8548 6.29632 19.9227 6.29632 20.3565 6.93721L25.4623 14.5266C26.5747 16.6629 26.4969 19.2714 25.2732 21.3403C24.0385 23.4091 21.7915 24.6909 19.411 24.6909H19.3999ZM19.4333 7.56685L14.3274 15.0551C13.393 16.8428 13.4598 19.0353 14.4943 20.7556C15.5288 22.4871 17.4087 23.5553 19.411 23.5553C21.4133 23.5553 23.2932 22.4759 24.3277 20.7556C25.3622 19.0241 25.4179 16.8428 24.4946 15.0551L19.4444 7.55561L19.4333 7.56685ZM19.3999 23.499C19.0995 23.499 18.7992 23.4766 18.4989 23.4316C16.7079 23.1393 15.1506 21.9924 14.3386 20.3508C13.5265 18.7093 13.5376 16.7641 14.3719 15.1338L19.3999 7.6568L24.3945 15.0776C24.9951 16.2244 25.1954 17.4387 25.0063 18.6531C24.8172 19.8674 24.261 20.958 23.4044 21.8237C22.3366 22.9031 20.8793 23.499 19.3888 23.499H19.3999ZM19.3999 9.65816L15.3175 15.7185C14.6834 16.9665 14.6723 18.5406 15.3175 19.8561C15.9738 21.1716 17.2196 22.0936 18.6657 22.3297C20.1007 22.5658 21.5801 22.0824 22.6147 21.0367C23.3043 20.3396 23.7493 19.4626 23.905 18.4844C24.0496 17.5062 23.905 16.5393 23.4378 15.6622L19.3888 9.65816H19.3999Z" fill="white"/>
<path d="M18.7881 32.9998C12.581 32.9998 6.81888 29.4019 4.10468 23.5552C3.81546 22.9368 4.08243 22.1947 4.69424 21.9136C5.30605 21.6213 6.04022 21.8912 6.31831 22.5096C8.99914 28.2888 15.1951 31.4707 21.4022 30.2676C27.8762 29.0084 32.5816 23.2741 32.5816 16.6179C32.5816 15.932 33.1266 15.3811 33.8052 15.3811C34.4837 15.3811 35.0288 15.932 35.0288 16.6179C35.0288 24.4547 29.478 31.2121 21.8582 32.6963C20.8237 32.8986 19.7892 32.9998 18.777 32.9998H18.7881Z" fill="white"/>
<path d="M37.7764 21.228C37.4427 21.228 37.1201 21.093 36.8754 20.8344L33.6606 17.304L30.1677 20.5534C29.6671 21.0143 28.8996 20.9806 28.4435 20.4859C27.9874 19.9799 28.0208 19.2041 28.5103 18.7431L32.9042 14.6505C33.1378 14.4256 33.4604 14.3019 33.7829 14.3244C34.1055 14.3356 34.417 14.4818 34.6283 14.7179L38.6774 19.1591C39.1335 19.6651 39.1001 20.4409 38.6107 20.9019C38.3771 21.1155 38.0767 21.228 37.7764 21.228Z" fill="white"/>
<path d="M18.7881 32.9998C12.581 32.9998 6.81888 29.4019 4.10468 23.5552C3.81546 22.9368 4.08243 22.1947 4.69424 21.9136C5.30605 21.6213 6.04022 21.8912 6.31831 22.5096C8.99914 28.2888 15.1951 31.4707 21.4022 30.2676C27.8762 29.0084 32.5816 23.2741 32.5816 16.6179C32.5816 15.932 33.1266 15.3811 33.8052 15.3811C34.4837 15.3811 35.0288 15.932 35.0288 16.6179C35.0288 24.4547 29.478 31.2121 21.8582 32.6963C20.8237 32.8986 19.7892 32.9998 18.777 32.9998H18.7881Z" fill="white"/>
<path d="M5.15031 17.6075C4.47176 17.6075 3.9267 17.0566 3.9267 16.3707C3.9267 8.53391 9.47747 1.7765 17.0973 0.292347C24.4056 -1.12435 31.7028 2.63102 34.8619 9.4334C35.1512 10.0518 34.8842 10.7939 34.2724 11.075C33.6606 11.3673 32.9375 11.0975 32.6483 10.4791C29.9675 4.69984 23.7715 1.5179 17.5645 2.72097C11.0904 3.98025 6.38505 9.71449 6.38505 16.3707C6.38505 17.0566 5.83999 17.6075 5.16144 17.6075H5.15031Z" fill="white"/>
<path d="M4.84997 18.7093C4.48289 18.7093 4.1158 18.5406 3.87108 18.2258L0.255849 13.4248C-0.155732 12.8851 -0.0556174 12.1093 0.489448 11.6933C1.02339 11.2773 1.79093 11.3785 2.20251 11.9294L5.08357 15.741L8.85454 12.8289C9.38848 12.4129 10.156 12.5141 10.5676 13.065C10.9792 13.6047 10.8791 14.3805 10.334 14.7965L5.59527 18.4619C5.37279 18.6306 5.11694 18.7205 4.84997 18.7205V18.7093Z" fill="white"/>
</g>
<defs>
<clipPath id="clip0_442_2767">
<rect width="39" height="33" fill="white"/>
</clipPath>
</defs>
</svg>
