<svg width="26" height="26" viewBox="0 0 26 26" fill="none" xmlns="http://www.w3.org/2000/svg">
<g clip-path="url(#clip0_442_2734)">
<path d="M10.1867 11.3481C9.89117 11.3481 9.5956 11.2319 9.36336 11.0103L1.34062 2.97696C0.886704 2.52304 0.886704 1.7841 1.34062 1.33018C1.79454 0.876267 2.53348 0.876267 2.97684 1.33018L11.0101 9.36348C11.464 9.8174 11.464 10.5563 11.0101 11.0103C10.7885 11.2319 10.4823 11.3481 10.1867 11.3481Z" fill="black"/>
<path d="M1.16119 8.87779C0.517255 8.87779 0 8.36054 0 7.71661V1.16119C0 0.517255 0.517255 0 1.16119 0H7.71661C8.36054 0 8.87779 0.517255 8.87779 1.16119C8.87779 1.80512 8.36054 2.32237 7.71661 2.32237H2.32237V7.71661C2.32237 8.36054 1.80512 8.87779 1.16119 8.87779Z" fill="black"/>
<path d="M23.836 24.9972C23.5404 24.9972 23.2448 24.8811 23.0126 24.6594L14.9793 16.6261C14.5254 16.1722 14.5254 15.4333 14.9793 14.9794C15.4332 14.5254 16.1721 14.5254 16.6155 14.9794L24.6488 23.0126C25.1027 23.4666 25.1027 24.2055 24.6488 24.6594C24.4271 24.8811 24.121 24.9972 23.8254 24.9972H23.836Z" fill="black"/>
<path d="M24.8388 26.0001H18.2834C17.6394 26.0001 17.1222 25.4829 17.1222 24.8389C17.1222 24.195 17.6394 23.6777 18.2834 23.6777H23.6776V18.2835C23.6776 17.6396 24.1949 17.1223 24.8388 17.1223C25.4827 17.1223 26 17.6396 26 18.2835V24.8389C26 25.4829 25.4827 26.0001 24.8388 26.0001Z" fill="black"/>
<path d="M2.15345 24.9972C1.85787 24.9972 1.5623 24.8811 1.33006 24.6594C0.876144 24.2055 0.876144 23.4666 1.33006 23.0126L9.36336 14.9794C9.81727 14.5254 10.5562 14.5254 10.9996 14.9794C11.4535 15.4333 11.4535 16.1722 10.9996 16.6261L2.96628 24.6594C2.7446 24.8811 2.43847 24.9972 2.14289 24.9972H2.15345Z" fill="black"/>
<path d="M7.71661 26.0001H1.16119C0.517255 26.0001 0 25.4829 0 24.8389V18.2835C0 17.6396 0.517255 17.1223 1.16119 17.1223C1.80512 17.1223 2.32237 17.6396 2.32237 18.2835V23.6777H7.71661C8.36054 23.6777 8.87779 24.195 8.87779 24.8389C8.87779 25.4829 8.36054 26.0001 7.71661 26.0001Z" fill="black"/>
<path d="M15.8027 11.348C15.5071 11.348 15.2115 11.2319 14.9793 11.0102C14.5254 10.5563 14.5254 9.81734 14.9793 9.36342L23.0126 1.34068C23.4665 0.886765 24.2054 0.886765 24.6488 1.34068C25.1027 1.7946 25.1027 2.53354 24.6488 2.98745L16.6155 11.0207C16.3938 11.2424 16.0877 11.3585 15.7921 11.3585L15.8027 11.348Z" fill="black"/>
<path d="M24.8388 8.87779C24.1949 8.87779 23.6776 8.36054 23.6776 7.71661V2.32237H18.2834C17.6394 2.32237 17.1222 1.80512 17.1222 1.16119C17.1222 0.517255 17.6394 0 18.2834 0H24.8388C25.4827 0 26 0.517255 26 1.16119V7.71661C26 8.36054 25.4827 8.87779 24.8388 8.87779Z" fill="black"/>
</g>
<defs>
<clipPath id="clip0_442_2734">
<rect width="26" height="26" fill="white"/>
</clipPath>
</defs>
</svg>
