<svg width="31" height="39" viewBox="0 0 31 39" fill="none" xmlns="http://www.w3.org/2000/svg">
<g clip-path="url(#clip0_442_2781)">
<path d="M19.2354 23.2247C18.0382 24.424 16.3345 24.9775 14.6539 24.7123C12.9732 24.4471 11.5343 23.3862 10.7745 21.864C10.0148 20.3418 10.0263 18.5544 10.7976 17.0438L15.4942 10.1363L20.1908 17.0438C20.7088 18.047 20.9045 19.1771 20.7318 20.2957C20.5592 21.4142 20.0412 22.4406 19.2354 23.2362V23.2247ZM21.2268 16.3749L16.0007 8.69485C15.8856 8.52188 15.6899 8.41809 15.4942 8.41809C15.2985 8.41809 15.0913 8.52188 14.9877 8.69485L9.77306 16.3749C9.77306 16.3749 9.75004 16.4095 9.73853 16.4326C8.67949 18.4506 8.74855 20.8838 9.92271 22.8442C11.0969 24.8045 13.2149 26.0038 15.4942 26.0038C17.7734 26.0038 19.8915 24.8045 21.0772 22.8442C22.2513 20.8838 22.3319 18.4506 21.2614 16.4326C21.2614 16.4095 21.2383 16.3865 21.2268 16.3749Z" fill="white"/>
<path d="M15.5057 26.5804C13.0423 26.5804 10.7055 25.2658 9.43926 23.144C8.1615 21.0221 8.08093 18.3583 9.23206 16.1673L9.31264 16.0405L14.5158 8.36041C14.9532 7.70311 16.0468 7.70311 16.4957 8.36041L21.7794 16.1443C22.9305 18.3468 22.8615 21.0221 21.5837 23.1324C20.306 25.2543 17.9807 26.5689 15.5172 26.5689L15.5057 26.5804ZM15.5403 9.01771L10.2566 16.6978C9.28961 18.5313 9.35868 20.78 10.4292 22.5443C11.4998 24.3202 13.4452 25.4157 15.5172 25.4157C17.5893 25.4157 19.5347 24.3087 20.6052 22.5443C21.6758 20.7685 21.7334 18.5313 20.7779 16.6978L15.5518 9.00618L15.5403 9.01771ZM15.5057 25.358C15.1949 25.358 14.8841 25.335 14.5733 25.2889C12.72 24.989 11.1084 23.8128 10.2681 22.1292C9.42775 20.4456 9.43926 18.4506 10.3026 16.7785L15.5057 9.10997L20.6743 16.7208C21.2959 17.8971 21.4916 19.1425 21.3074 20.3879C21.1117 21.6333 20.5362 22.7634 19.6498 23.6398C18.5447 24.7469 17.0367 25.358 15.4942 25.358H15.5057ZM15.5057 11.1626L11.2811 17.3781C10.6249 18.6582 10.6134 20.2611 11.2811 21.6218C11.9602 22.971 13.2495 23.9166 14.746 24.1588C16.2425 24.4009 17.762 23.9051 18.8325 22.8326C19.5462 22.1177 20.0067 21.2182 20.1678 20.2149C20.3175 19.2117 20.1678 18.22 19.6843 17.3205L15.4942 11.1626H15.5057Z" fill="white"/>
<path d="M3.71815 23.167C5.42183 27.8143 9.07092 31.6428 15.4712 36.0594C21.9406 31.6428 25.5782 27.8143 27.2818 23.167C28.9855 18.4506 28.8128 12.8001 27.6962 4.7971C26.0501 3.90916 23.5176 3.32105 21.2269 2.9751C18.6944 2.55996 16.4036 2.38699 15.5863 2.32933H15.4137C14.5964 2.38699 12.2941 2.55996 9.71555 2.9751C7.4248 3.33258 4.94986 3.92069 3.30374 4.7971C2.12959 12.8116 1.95692 18.4621 3.71815 23.167ZM14.3546 37.7084C7.53991 33.0611 3.71815 28.9443 1.83029 23.8128C-0.046054 18.6927 0.126616 12.6271 1.4274 4.02448L1.48495 3.60934L1.8418 3.30952C3.77571 2.14482 6.71109 1.44139 9.41626 0.968594C13.9402 0.253633 17.0598 0.253633 21.5837 0.968594C24.2313 1.44139 27.2243 2.14482 29.1121 3.32105L29.5265 3.62087L29.5841 4.03601C30.8734 12.6386 31.0575 18.7043 29.1697 23.8243C27.2933 28.9444 23.414 33.0727 16.6454 37.7199L15.4712 38.481L14.3546 37.7199V37.7084Z" fill="white"/>
<path d="M15.4597 39L12.9502 37.2818H12.9733C6.67657 32.8075 3.18864 28.7829 1.4274 23.9627C-0.598588 18.4391 -0.207203 11.9813 0.989975 3.96685L1.07055 3.39027L1.55403 2.98667C3.25771 1.94882 5.7902 1.15314 9.33568 0.541958C13.9402 -0.173003 17.0483 -0.173003 21.6413 0.541958C25.3019 1.18773 27.7423 1.96035 29.3309 2.9636L29.9179 3.37874L29.9985 3.97839C31.2072 11.9929 31.5871 18.4621 29.5611 23.9742C27.7078 29.0136 23.9205 33.2341 16.8756 38.0774L15.4482 39.0115L15.4597 39ZM1.88786 3.84001L1.85332 4.0937C0.667658 11.9698 0.276273 18.3237 2.24471 23.6629C4.05199 28.5754 7.74712 32.6691 14.6079 37.3509L15.4942 37.9506L16.4267 37.3394C23.2989 32.6114 26.9941 28.5177 28.7783 23.6514C30.7467 18.3122 30.3554 11.9583 29.1697 4.08217L29.1352 3.85154L28.8704 3.66703C27.42 2.75603 25.0026 2.00648 21.5262 1.38377C17.0368 0.680338 13.9978 0.680338 9.49684 1.38377C6.06647 1.98341 3.62607 2.73297 2.07204 3.67856L1.89937 3.82848L1.88786 3.84001ZM15.4712 36.5899L15.2295 36.4169C8.55291 31.8158 4.99592 27.895 3.31526 23.3169C1.42741 18.2776 1.78426 12.2466 2.87783 4.72794L2.91237 4.50884L3.10806 4.40506C4.97289 3.4018 7.70108 2.83675 9.658 2.53693C11.9372 2.17945 14.0438 1.98341 15.3906 1.89116H15.5978C17.5893 2.02954 19.5577 2.26017 21.3075 2.53693C23.2989 2.84829 26.0616 3.41334 27.9035 4.40506L28.0991 4.50884L28.1337 4.72794C29.1812 12.2581 29.515 18.3007 27.6962 23.3054C26.0156 27.9065 22.4241 31.8273 15.713 36.4169L15.4712 36.5783V36.5899ZM3.69514 5.07389C2.63609 12.3504 2.31378 18.1969 4.12105 23.0171C5.70962 27.3645 9.11697 31.1239 15.4712 35.5405C21.86 31.1354 25.2789 27.3876 26.8789 23.0171C28.6172 18.2315 28.3063 12.3734 27.3049 5.07389C25.935 4.38199 23.7594 3.79388 21.1693 3.39027C19.4311 3.10198 17.4972 2.88288 15.5633 2.7445H15.4252C14.1129 2.83675 12.0408 3.03279 9.78463 3.39027C7.24062 3.78235 5.08801 4.37046 3.70665 5.07389H3.69514Z" fill="white"/>
</g>
<defs>
<clipPath id="clip0_442_2781">
<rect width="31" height="39" fill="white"/>
</clipPath>
</defs>
</svg>
